# xmcd
#
# Track frame offsets: 
#        150
#        18190
#        33885
#        58160
#
# Disc length: 943 seconds
#
# Revision: 0
# Processed by: cddbd v1.5.2PL0 Copyright (c) Steve Scherf et al.
# Submitted via: ExactAudioCopy v0.99pb5
#
DISCID=2703ad04
DTITLE=Miranda Lambert - Dead Flowers EP
DYEAR=2009
DGENRE=Country
TTITLE0=Dead Flowers
TTITLE1=Take It Out On Me
TTITLE2=I Just Really Miss You
TTITLE3=Nobody's Used To Be
EXTD=
EXTT0=
EXTT1=
EXTT2=
EXTT3=
PLAYORDER=
